<svg xmlns="http://www.w3.org/2000/svg" width="2691.592" height="2691" viewBox="0 0 2691.592 2691">
  <g id="Group_20" data-name="Group 20" transform="translate(3.592)">
    <rect id="Rectangle_12" data-name="Rectangle 12" width="2685" height="2691" fill="#cdd8dc"/>
    <path id="Path_51" data-name="Path 51" d="M831.938,263.728A60.645,60.645,0,0,1,892.5,206.252c1.843,0,3.663.1,5.464.257a80.574,80.574,0,0,1,139.284-.066c1.52-.114,3.049-.191,4.6-.191a60.645,60.645,0,0,1,60.561,57.475" transform="translate(1529.038 462.238)" fill="#f2f2f2"/>
    <path id="Path_43" data-name="Path 43" d="M84.962,432.276c5.481-107.346,91.992-191.5,196.86-191.506,5.991,0,11.907.32,17.763.857C346.45,158.985,432.647,108.119,525.9,108.074s179.5,50.738,226.44,133.333c4.94-.38,9.913-.637,14.947-.637,104.865,0,191.378,84.156,196.86,191.5" transform="translate(-84.962 422.47)" fill="#f2f2f2"/>
    <path id="Path_58" data-name="Path 58" d="M320.611,605.488c0-98.807-27.234-190.232,68.28-190.232,5.428,0-5.305-.533,0,0,42.461-82.092,102.37-131.769,186.864-131.814s162.636,50.4,205.167,132.447c4.476-.378,8.981-.633,13.543-.633,95.513,0,173.513,84.253,178.367,190.232" transform="translate(-320.612 1413.238)" fill="#f2f2f2"/>
    <path id="Path_70" data-name="Path 70" d="M831.938,263.728A60.645,60.645,0,0,1,892.5,206.252c1.843,0,3.663.1,5.464.257a80.574,80.574,0,0,1,139.284-.066c1.52-.114,3.049-.191,4.6-.191a60.645,60.645,0,0,1,60.561,57.475" transform="translate(-624.962 1123.238)" fill="#f2f2f2"/>
    <path id="Path_41" data-name="Path 41" d="M155.988,605.488c5.455-105.98,93.109-190.232,200.445-190.232,6.1,0,12.124.318,18.086.851a266.684,266.684,0,0,1,461-.218c5.03-.378,10.093-.633,15.219-.633,107.336,0,194.99,84.253,200.445,190.232" transform="translate(1286.038 -229.762)" fill="#f2f2f2"/>
    <path id="Path_45" data-name="Path 45" d="M831.938,263.728A60.645,60.645,0,0,1,892.5,206.252c1.843,0,3.663.1,5.464.257a80.574,80.574,0,0,1,139.284-.066c1.52-.114,3.049-.191,4.6-.191a60.645,60.645,0,0,1,60.561,57.475" transform="translate(-630.962 -83.762)" fill="#f2f2f2"/>
    <path id="Path_54" data-name="Path 54" d="M155.988,605.488c5.455-105.98,93.109-190.232,200.445-190.232,6.1,0,12.124.318,18.086.851a266.684,266.684,0,0,1,461-.218c5.03-.378,10.093-.633,15.219-.633,46.154,0,66.225,22.506,66.225,54.506V605.488" transform="translate(1771.038 1866.238)" fill="#f2f2f2"/>
    <path id="Path_65" data-name="Path 65" d="M155.988,552.762c4.815-88.629,82.19-159.087,176.94-159.087,5.385,0,10.7.266,15.965.712,42.122-68.651,119.6-110.907,203.415-110.945S713.643,325.591,755.834,394.2c4.44-.316,8.909-.529,13.435-.529,94.749,0,172.125,70.459,176.94,159.087" transform="translate(-155.988 2138.238)" fill="#f2f2f2"/>
    <path id="Path_61" data-name="Path 61" d="M831.938,263.728A60.645,60.645,0,0,1,892.5,206.252c1.843,0,3.663.1,5.464.257a80.574,80.574,0,0,1,139.284-.066c1.52-.114,3.049-.191,4.6-.191a60.645,60.645,0,0,1,60.561,57.475" transform="translate(1045.038 1642.238)" fill="#f2f2f2"/>
    <path id="Path_56" data-name="Path 56" d="M831.938,263.728A60.645,60.645,0,0,1,892.5,206.252c1.843,0,3.663.1,5.464.257a80.574,80.574,0,0,1,139.284-.066c1.52-.114,3.049-.191,4.6-.191a60.645,60.645,0,0,1,60.561,57.475" transform="translate(375.038 2206.238)" fill="#f2f2f2"/>
    <path id="Path_82" data-name="Path 82" d="M155.988,605.488c5.455-105.98,93.109-190.232,200.445-190.232,6.1,0,12.124.318,18.086.851a266.684,266.684,0,0,1,461-.218c5.03-.378,10.093-.633,15.219-.633,46.154,0,66.225,22.506,66.225,54.506V605.488" transform="translate(1768.038 845.238)" fill="#f2f2f2"/>
  </g>
</svg>
