<svg xmlns="http://www.w3.org/2000/svg" width="1434.286" height="2691" viewBox="0 0 1434.286 2691">
  <g id="Group_20" data-name="Group 20" transform="translate(3.592 0.143)">
    <rect id="Rectangle_12" data-name="Rectangle 12" width="1430" height="2691" transform="translate(-1.306 -0.143)" fill="#cdd8dc"/>
    <path id="Path_51" data-name="Path 51" d="M831.938,236.93a43.943,43.943,0,0,1,43.882-41.646c1.336,0,2.654.07,3.959.186a58.383,58.383,0,0,1,100.923-.048c1.1-.083,2.21-.139,3.332-.139a43.943,43.943,0,0,1,43.882,41.645" transform="translate(361.8 468.742)" fill="#f2f2f2"/>
    <path id="Path_43" data-name="Path 43" d="M84.962,342.985C88.934,265.2,151.618,204.225,227.6,204.223c4.341,0,8.628.232,12.87.621,33.957-59.881,96.415-96.738,163.986-96.77s130.062,36.764,164.075,96.611c3.579-.276,7.182-.462,10.83-.462,75.984,0,138.669,60.978,142.642,138.759" transform="translate(-85.952 442.501)" fill="#f2f2f2"/>
    <path id="Path_58" data-name="Path 58" d="M319.622,516.792c0-71.594-19.733-137.839,49.475-137.839,3.933,0-3.844-.386,0,0,30.767-59.482,74.176-95.478,135.4-95.51s117.844,36.519,148.661,95.969c3.243-.274,6.508-.459,9.813-.459,69.208,0,125.725,61.048,129.242,137.839" transform="translate(-320.612 1476.679)" fill="#f2f2f2"/>
    <path id="Path_70" data-name="Path 70" d="M831.938,236.93a43.943,43.943,0,0,1,43.882-41.646c1.336,0,2.654.07,3.959.186a58.383,58.383,0,0,1,100.923-.048c1.1-.083,2.21-.139,3.332-.139a43.943,43.943,0,0,1,43.882,41.645" transform="translate(-682.956 1136.521)" fill="#f2f2f2"/>
    <path id="Path_41" data-name="Path 41" d="M155.988,516.792A145.44,145.44,0,0,1,301.227,378.952c4.42,0,8.785.231,13.1.617a193.235,193.235,0,0,1,334.033-.158c3.644-.274,7.313-.459,11.028-.459A145.441,145.441,0,0,1,804.632,516.792" transform="translate(371.893 -244.546)" fill="#f2f2f2"/>
    <path id="Path_45" data-name="Path 45" d="M831.938,236.93a43.943,43.943,0,0,1,43.882-41.646c1.336,0,2.654.07,3.959.186a58.383,58.383,0,0,1,100.923-.048c1.1-.083,2.21-.139,3.332-.139a43.943,43.943,0,0,1,43.882,41.645" transform="translate(-687.303 -106.529)" fill="#f2f2f2"/>
    <path id="Path_54" data-name="Path 54" d="M155.988,516.792A145.44,145.44,0,0,1,301.227,378.952c4.42,0,8.785.231,13.1.617a193.235,193.235,0,0,1,334.033-.158c3.644-.274,7.313-.459,11.028-.459,33.443,0,47.985,16.307,47.985,39.494v98.345" transform="translate(723.316 2015.183)" fill="#f2f2f2"/>
    <path id="Path_65" data-name="Path 65" d="M155.988,478.587c3.489-64.219,59.554-115.272,128.208-115.272,3.9,0,7.755.193,11.568.516,30.521-49.744,86.658-80.362,147.391-80.389s116.9,30.54,147.471,80.257c3.217-.229,6.456-.384,9.734-.384,68.654,0,124.719,51.053,128.208,115.272" transform="translate(-156.977 2212.271)" fill="#f2f2f2"/>
    <path id="Path_61" data-name="Path 61" d="M831.938,236.93a43.943,43.943,0,0,1,43.882-41.646c1.336,0,2.654.07,3.959.186a58.383,58.383,0,0,1,100.923-.048c1.1-.083,2.21-.139,3.332-.139a43.943,43.943,0,0,1,43.882,41.645" transform="translate(126.306 1660.843)" fill="#f2f2f2"/>
    <path id="Path_56" data-name="Path 56" d="M831.938,236.93a43.943,43.943,0,0,1,43.882-41.646c1.336,0,2.654.07,3.959.186a58.383,58.383,0,0,1,100.923-.048c1.1-.083,2.21-.139,3.332-.139a43.943,43.943,0,0,1,43.882,41.645" transform="translate(-216.372 2293.77)" fill="#f2f2f2"/>
    <path id="Path_82" data-name="Path 82" d="M155.988,516.792A145.44,145.44,0,0,1,301.227,378.952c4.42,0,8.785.231,13.1.617a193.235,193.235,0,0,1,334.033-.158c3.644-.274,7.313-.459,11.028-.459,33.443,0,47.985,16.307,47.985,39.494v98.345" transform="translate(721.142 887.462)" fill="#f2f2f2"/>
  </g>
</svg>
