<svg xmlns="http://www.w3.org/2000/svg" width="130.49" height="139.294" viewBox="0 0 130.49 139.294">
  <path id="Icon_awesome-paw" data-name="Icon awesome-paw" d="M56.955,42.941C39.288,42.941,14.24,70.4,14.24,87.726c0,7.805,5.965,12.468,15.96,12.468,10.866,0,18.04-5.609,26.755-5.609,8.79,0,15.985,5.609,26.755,5.609,10,0,15.96-4.663,15.96-12.468C99.67,70.4,74.622,42.941,56.955,42.941Zm-32.766-2.82c-2.314-7.749-9.442-12.768-15.92-11.211s-9.853,9.1-7.54,16.849,9.442,12.768,15.92,11.211,9.853-9.1,7.54-16.849Zm18.848-4.647c6.883-1.82,10.327-11.169,7.693-20.879S40.381-1.51,33.5.31,23.17,11.479,25.8,21.19,36.156,37.3,43.037,35.474Zm62.6-6.562c-6.478-1.557-13.6,3.462-15.92,11.211s1.061,15.293,7.54,16.849,13.6-3.462,15.92-11.211S112.117,30.469,105.639,28.912ZM70.873,35.474c6.883,1.82,14.6-4.574,17.233-14.284S87.3,2.133,80.413.31,65.814,4.884,63.18,14.594,63.99,33.653,70.873,35.474Z" transform="matrix(-0.309, 0.951, -0.951, -0.309, 130.49, 30.962)" fill="#007090" opacity="0.5"/>
</svg>
